<svg xmlns="http://www.w3.org/2000/svg" viewBox="0 0 264.583 369.291"><path fill="#c19643" stroke="#74041a" stroke-width="6.302" d="m118.39 195.386-.007 121.22 86.083-29.251.005-60.606-28.69 9.75-.003 30.303-28.691 9.75.005-90.918zm-.005 60.605-86.083 29.251-.001 30.303 28.691-9.75.002-30.303 28.691-9.75-.005 60.606-86.083 29.25.004-90.916 114.775-39zm57.389-49.807 28.691-9.75.005-90.917-28.691 9.75zm-28.694 40.052 114.775-39 .005-90.917-57.383 19.5-.002 30.302 28.692-9.75-.002 30.303-86.084 29.25zm.01-151.522 86.083-29.251.002-30.303-28.692 9.75-.002 30.303-28.691 9.75.005-60.606 86.083-29.251-.004 90.917-114.775 39zm-28.7 70.36.005-90.917-28.691 9.75-.002 30.303-28.692 9.75.005-60.606 86.083-29.251-.006 121.22zm.002-30.303L32.31 164.022l-.001 30.303 28.691-9.75-.001 30.303-57.383 19.5.004-90.918 114.775-39Zm57.384 41.11.002-30.303-86.083 29.251-.002 30.303zM61 245.184l28.691-9.75.005-90.917-28.691 9.75z" opacity=".9" style="mix-blend-mode:normal" transform="translate(-.446 9.293)"/></svg>